<svg xmlns="http://www.w3.org/2000/svg" width="24" height="24" viewBox="0 0 48 48"><g><path fill="#4285F4" d="M44.5 20H24v8.5h11.7C34.7 33.1 30.1 36 24 36c-6.6 0-12-5.4-12-12s5.4-12 12-12c3.1 0 5.9 1.1 8.1 2.9l6.1-6.1C34.5 6.2 29.6 4 24 4 12.9 4 4 12.9 4 24s8.9 20 20 20c11 0 19.7-8 19.7-20 0-1.3-.1-2.7-.2-4z"/><path fill="#34A853" d="M6.3 14.7l7 5.1C15.5 16.1 19.4 13 24 13c3.1 0 5.9 1.1 8.1 2.9l6.1-6.1C34.5 6.2 29.6 4 24 4c-7.2 0-13.3 4.1-16.7 10.7z"/><path fill="#FBBC05" d="M24 44c5.5 0 10.4-1.8 14.2-4.9l-6.6-5.4C29.7 35.5 27 36.5 24 36.5c-6.1 0-10.7-3.9-12.5-9.1l-7 5.4C7.1 39.9 14.9 44 24 44z"/><path fill="#EA4335" d="M44.5 20H24v8.5h11.7c-1.1 3.1-4.1 5.5-7.7 5.5-4.6 0-8.3-3.7-8.3-8.3s3.7-8.3 8.3-8.3c2.1 0 4 .7 5.5 2.1l6.1-6.1C34.5 6.2 29.6 4 24 4c-7.2 0-13.3 4.1-16.7 10.7z"/></g></svg>